<svg width="373" height="101" viewBox="0 0 373 101" fill="none" xmlns="http://www.w3.org/2000/svg">
<path d="M35.8871 23.88C40.3271 23.88 44.2071 24.76 47.5271 26.52C50.8471 28.28 53.4071 30.76 55.2071 33.96C57.0471 37.12 57.9671 40.78 57.9671 44.94C57.9671 49.06 57.0471 52.72 55.2071 55.92C53.4071 59.12 50.8271 61.6 47.4671 63.36C44.1471 65.12 40.2871 66 35.8871 66H20.1071V23.88H35.8871ZM35.2271 57.12C39.1071 57.12 42.1271 56.06 44.2871 53.94C46.4471 51.82 47.5271 48.82 47.5271 44.94C47.5271 41.06 46.4471 38.04 44.2871 35.88C42.1271 33.72 39.1071 32.64 35.2271 32.64H30.3671V57.12H35.2271ZM83.6208 66.42C79.6608 66.42 76.0208 65.5 72.7008 63.66C69.4208 61.82 66.8008 59.26 64.8408 55.98C62.9208 52.66 61.9608 48.94 61.9608 44.82C61.9608 40.7 62.9208 37 64.8408 33.72C66.8008 30.44 69.4208 27.88 72.7008 26.04C76.0208 24.2 79.6608 23.28 83.6208 23.28C87.5808 23.28 91.2008 24.2 94.4808 26.04C97.8008 27.88 100.401 30.44 102.281 33.72C104.201 37 105.161 40.7 105.161 44.82C105.161 48.94 104.201 52.66 102.281 55.98C100.361 59.26 97.7608 61.82 94.4808 63.66C91.2008 65.5 87.5808 66.42 83.6208 66.42ZM83.6208 57.06C86.9808 57.06 89.6608 55.94 91.6608 53.7C93.7008 51.46 94.7208 48.5 94.7208 44.82C94.7208 41.1 93.7008 38.14 91.6608 35.94C89.6608 33.7 86.9808 32.58 83.6208 32.58C80.2208 32.58 77.5008 33.68 75.4608 35.88C73.4608 38.08 72.4608 41.06 72.4608 44.82C72.4608 48.54 73.4608 51.52 75.4608 53.76C77.5008 55.96 80.2208 57.06 83.6208 57.06ZM138.829 37.2C138.069 35.8 136.969 34.74 135.529 34.02C134.129 33.26 132.469 32.88 130.549 32.88C127.229 32.88 124.569 33.98 122.569 36.18C120.569 38.34 119.569 41.24 119.569 44.88C119.569 48.76 120.609 51.8 122.689 54C124.809 56.16 127.709 57.24 131.389 57.24C133.909 57.24 136.029 56.6 137.749 55.32C139.509 54.04 140.789 52.2 141.589 49.8H128.569V42.24H150.889V51.78C150.129 54.34 148.829 56.72 146.989 58.92C145.189 61.12 142.889 62.9 140.089 64.26C137.289 65.62 134.129 66.3 130.609 66.3C126.449 66.3 122.729 65.4 119.449 63.6C116.209 61.76 113.669 59.22 111.829 55.98C110.029 52.74 109.129 49.04 109.129 44.88C109.129 40.72 110.029 37.02 111.829 33.78C113.669 30.5 116.209 27.96 119.449 26.16C122.689 24.32 126.389 23.4 130.549 23.4C135.589 23.4 139.829 24.62 143.269 27.06C146.749 29.5 149.049 32.88 150.169 37.2H138.829Z" fill="black"/>
<path d="M233.497 23.6C233.117 22.9 232.567 22.37 231.847 22.01C231.147 21.63 230.317 21.44 229.357 21.44C227.697 21.44 226.367 21.99 225.367 23.09C224.367 24.17 223.867 25.62 223.867 27.44C223.867 29.38 224.387 30.9 225.427 32C226.487 33.08 227.937 33.62 229.777 33.62C231.037 33.62 232.097 33.3 232.957 32.66C233.837 32.02 234.477 31.1 234.877 29.9H228.367V26.12H239.527V30.89C239.147 32.17 238.497 33.36 237.577 34.46C236.677 35.56 235.527 36.45 234.127 37.13C232.727 37.81 231.147 38.15 229.387 38.15C227.307 38.15 225.447 37.7 223.807 36.8C222.187 35.88 220.917 34.61 219.997 32.99C219.097 31.37 218.647 29.52 218.647 27.44C218.647 25.36 219.097 23.51 219.997 21.89C220.917 20.25 222.187 18.98 223.807 18.08C225.427 17.16 227.277 16.7 229.357 16.7C231.877 16.7 233.997 17.31 235.717 18.53C237.457 19.75 238.607 21.44 239.167 23.6H233.497ZM247.498 24.05C248.098 23.13 248.848 22.41 249.748 21.89C250.648 21.35 251.648 21.08 252.748 21.08V26.51H251.338C250.058 26.51 249.098 26.79 248.458 27.35C247.818 27.89 247.498 28.85 247.498 30.23V38H242.368V21.26H247.498V24.05ZM262.82 38.24C261.18 38.24 259.7 37.89 258.38 37.19C257.08 36.49 256.05 35.49 255.29 34.19C254.55 32.89 254.18 31.37 254.18 29.63C254.18 27.91 254.56 26.4 255.32 25.1C256.08 23.78 257.12 22.77 258.44 22.07C259.76 21.37 261.24 21.02 262.88 21.02C264.52 21.02 266 21.37 267.32 22.07C268.64 22.77 269.68 23.78 270.44 25.1C271.2 26.4 271.58 27.91 271.58 29.63C271.58 31.35 271.19 32.87 270.41 34.19C269.65 35.49 268.6 36.49 267.26 37.19C265.94 37.89 264.46 38.24 262.82 38.24ZM262.82 33.8C263.8 33.8 264.63 33.44 265.31 32.72C266.01 32 266.36 30.97 266.36 29.63C266.36 28.29 266.02 27.26 265.34 26.54C264.68 25.82 263.86 25.46 262.88 25.46C261.88 25.46 261.05 25.82 260.39 26.54C259.73 27.24 259.4 28.27 259.4 29.63C259.4 30.97 259.72 32 260.36 32.72C261.02 33.44 261.84 33.8 262.82 33.8ZM281.922 38.24C280.282 38.24 278.802 37.89 277.482 37.19C276.182 36.49 275.152 35.49 274.392 34.19C273.652 32.89 273.282 31.37 273.282 29.63C273.282 27.91 273.662 26.4 274.422 25.1C275.182 23.78 276.222 22.77 277.542 22.07C278.862 21.37 280.342 21.02 281.982 21.02C283.622 21.02 285.102 21.37 286.422 22.07C287.742 22.77 288.782 23.78 289.542 25.1C290.302 26.4 290.682 27.91 290.682 29.63C290.682 31.35 290.292 32.87 289.512 34.19C288.752 35.49 287.702 36.49 286.362 37.19C285.042 37.89 283.562 38.24 281.922 38.24ZM281.922 33.8C282.902 33.8 283.732 33.44 284.412 32.72C285.112 32 285.462 30.97 285.462 29.63C285.462 28.29 285.122 27.26 284.442 26.54C283.782 25.82 282.962 25.46 281.982 25.46C280.982 25.46 280.152 25.82 279.492 26.54C278.832 27.24 278.502 28.27 278.502 29.63C278.502 30.97 278.822 32 279.462 32.72C280.122 33.44 280.942 33.8 281.922 33.8ZM314.763 21.08C316.843 21.08 318.493 21.71 319.713 22.97C320.953 24.23 321.573 25.98 321.573 28.22V38H316.473V28.91C316.473 27.83 316.183 27 315.603 26.42C315.043 25.82 314.263 25.52 313.263 25.52C312.263 25.52 311.473 25.82 310.893 26.42C310.333 27 310.053 27.83 310.053 28.91V38H304.953V28.91C304.953 27.83 304.663 27 304.083 26.42C303.523 25.82 302.743 25.52 301.743 25.52C300.743 25.52 299.953 25.82 299.373 26.42C298.813 27 298.533 27.83 298.533 28.91V38H293.403V21.26H298.533V23.36C299.053 22.66 299.733 22.11 300.573 21.71C301.413 21.29 302.363 21.08 303.423 21.08C304.683 21.08 305.803 21.35 306.783 21.89C307.783 22.43 308.563 23.2 309.123 24.2C309.703 23.28 310.493 22.53 311.493 21.95C312.493 21.37 313.583 21.08 314.763 21.08ZM340.941 29.36C340.941 29.84 340.911 30.34 340.851 30.86H329.241C329.321 31.9 329.651 32.7 330.231 33.26C330.831 33.8 331.561 34.07 332.421 34.07C333.701 34.07 334.591 33.53 335.091 32.45H340.551C340.271 33.55 339.761 34.54 339.021 35.42C338.301 36.3 337.391 36.99 336.291 37.49C335.191 37.99 333.961 38.24 332.601 38.24C330.961 38.24 329.501 37.89 328.221 37.19C326.941 36.49 325.941 35.49 325.221 34.19C324.501 32.89 324.141 31.37 324.141 29.63C324.141 27.89 324.491 26.37 325.191 25.07C325.911 23.77 326.911 22.77 328.191 22.07C329.471 21.37 330.941 21.02 332.601 21.02C334.221 21.02 335.661 21.36 336.921 22.04C338.181 22.72 339.161 23.69 339.861 24.95C340.581 26.21 340.941 27.68 340.941 29.36ZM335.691 28.01C335.691 27.13 335.391 26.43 334.791 25.91C334.191 25.39 333.441 25.13 332.541 25.13C331.681 25.13 330.951 25.38 330.351 25.88C329.771 26.38 329.411 27.09 329.271 28.01H335.691ZM348.778 24.05C349.378 23.13 350.128 22.41 351.028 21.89C351.928 21.35 352.928 21.08 354.028 21.08V26.51H352.618C351.338 26.51 350.378 26.79 349.738 27.35C349.098 27.89 348.778 28.85 348.778 30.23V38H343.648V21.26H348.778V24.05ZM363.29 38.24C361.83 38.24 360.53 37.99 359.39 37.49C358.25 36.99 357.35 36.31 356.69 35.45C356.03 34.57 355.66 33.59 355.58 32.51H360.65C360.71 33.09 360.98 33.56 361.46 33.92C361.94 34.28 362.53 34.46 363.23 34.46C363.87 34.46 364.36 34.34 364.7 34.1C365.06 33.84 365.24 33.51 365.24 33.11C365.24 32.63 364.99 32.28 364.49 32.06C363.99 31.82 363.18 31.56 362.06 31.28C360.86 31 359.86 30.71 359.06 30.41C358.26 30.09 357.57 29.6 356.99 28.94C356.41 28.26 356.12 27.35 356.12 26.21C356.12 25.25 356.38 24.38 356.9 23.6C357.44 22.8 358.22 22.17 359.24 21.71C360.28 21.25 361.51 21.02 362.93 21.02C365.03 21.02 366.68 21.54 367.88 22.58C369.1 23.62 369.8 25 369.98 26.72H365.24C365.16 26.14 364.9 25.68 364.46 25.34C364.04 25 363.48 24.83 362.78 24.83C362.18 24.83 361.72 24.95 361.4 25.19C361.08 25.41 360.92 25.72 360.92 26.12C360.92 26.6 361.17 26.96 361.67 27.2C362.19 27.44 362.99 27.68 364.07 27.92C365.31 28.24 366.32 28.56 367.1 28.88C367.88 29.18 368.56 29.68 369.14 30.38C369.74 31.06 370.05 31.98 370.07 33.14C370.07 34.12 369.79 35 369.23 35.78C368.69 36.54 367.9 37.14 366.86 37.58C365.84 38.02 364.65 38.24 363.29 38.24Z" fill="black"/>
<path d="M244.844 62.04H251.564V66H239.714V44.94H244.844V62.04ZM261.631 66.24C259.991 66.24 258.511 65.89 257.191 65.19C255.891 64.49 254.861 63.49 254.101 62.19C253.361 60.89 252.991 59.37 252.991 57.63C252.991 55.91 253.371 54.4 254.131 53.1C254.891 51.78 255.931 50.77 257.251 50.07C258.571 49.37 260.051 49.02 261.691 49.02C263.331 49.02 264.811 49.37 266.131 50.07C267.451 50.77 268.491 51.78 269.251 53.1C270.011 54.4 270.391 55.91 270.391 57.63C270.391 59.35 270.001 60.87 269.221 62.19C268.461 63.49 267.411 64.49 266.071 65.19C264.751 65.89 263.271 66.24 261.631 66.24ZM261.631 61.8C262.611 61.8 263.441 61.44 264.121 60.72C264.821 60 265.171 58.97 265.171 57.63C265.171 56.29 264.831 55.26 264.151 54.54C263.491 53.82 262.671 53.46 261.691 53.46C260.691 53.46 259.861 53.82 259.201 54.54C258.541 55.24 258.211 56.27 258.211 57.63C258.211 58.97 258.531 60 259.171 60.72C259.831 61.44 260.651 61.8 261.631 61.8ZM283.313 49.08C285.273 49.08 286.833 49.72 287.993 51C289.173 52.26 289.763 54 289.763 56.22V66H284.663V56.91C284.663 55.79 284.373 54.92 283.793 54.3C283.213 53.68 282.433 53.37 281.453 53.37C280.473 53.37 279.693 53.68 279.113 54.3C278.533 54.92 278.243 55.79 278.243 56.91V66H273.113V49.26H278.243V51.48C278.763 50.74 279.463 50.16 280.343 49.74C281.223 49.3 282.213 49.08 283.313 49.08ZM292.308 57.6C292.308 55.88 292.628 54.37 293.268 53.07C293.928 51.77 294.818 50.77 295.938 50.07C297.058 49.37 298.308 49.02 299.688 49.02C300.788 49.02 301.788 49.25 302.688 49.71C303.608 50.17 304.328 50.79 304.848 51.57V43.8H309.978V66H304.848V63.6C304.368 64.4 303.678 65.04 302.778 65.52C301.898 66 300.868 66.24 299.688 66.24C298.308 66.24 297.058 65.89 295.938 65.19C294.818 64.47 293.928 63.46 293.268 62.16C292.628 60.84 292.308 59.32 292.308 57.6ZM304.848 57.63C304.848 56.35 304.488 55.34 303.768 54.6C303.068 53.86 302.208 53.49 301.188 53.49C300.168 53.49 299.298 53.86 298.578 54.6C297.878 55.32 297.528 56.32 297.528 57.6C297.528 58.88 297.878 59.9 298.578 60.66C299.298 61.4 300.168 61.77 301.188 61.77C302.208 61.77 303.068 61.4 303.768 60.66C304.488 59.92 304.848 58.91 304.848 57.63ZM321.309 66.24C319.669 66.24 318.189 65.89 316.869 65.19C315.569 64.49 314.539 63.49 313.779 62.19C313.039 60.89 312.669 59.37 312.669 57.63C312.669 55.91 313.049 54.4 313.809 53.1C314.569 51.78 315.609 50.77 316.929 50.07C318.249 49.37 319.729 49.02 321.369 49.02C323.009 49.02 324.489 49.37 325.809 50.07C327.129 50.77 328.169 51.78 328.929 53.1C329.689 54.4 330.069 55.91 330.069 57.63C330.069 59.35 329.679 60.87 328.899 62.19C328.139 63.49 327.089 64.49 325.749 65.19C324.429 65.89 322.949 66.24 321.309 66.24ZM321.309 61.8C322.289 61.8 323.119 61.44 323.799 60.72C324.499 60 324.849 58.97 324.849 57.63C324.849 56.29 324.509 55.26 323.829 54.54C323.169 53.82 322.349 53.46 321.369 53.46C320.369 53.46 319.539 53.82 318.879 54.54C318.219 55.24 317.889 56.27 317.889 57.63C317.889 58.97 318.209 60 318.849 60.72C319.509 61.44 320.329 61.8 321.309 61.8ZM342.991 49.08C344.951 49.08 346.511 49.72 347.671 51C348.851 52.26 349.441 54 349.441 56.22V66H344.341V56.91C344.341 55.79 344.051 54.92 343.471 54.3C342.891 53.68 342.111 53.37 341.131 53.37C340.151 53.37 339.371 53.68 338.791 54.3C338.211 54.92 337.921 55.79 337.921 56.91V66H332.791V49.26H337.921V51.48C338.441 50.74 339.141 50.16 340.021 49.74C340.901 49.3 341.891 49.08 342.991 49.08Z" fill="black"/>
<path d="M185.249 27.2932L187.655 13.0354C187.853 11.8635 188.884 11 190.093 11C190.874 11 191.603 11.3598 192.072 11.9766L193.832 14.2895H199.26C200.583 14.2895 201.854 14.8137 202.791 15.7389L204.666 17.5789H210.5C211.885 17.5789 213 18.6789 213 20.0461V22.5132C213 27.0567 209.271 30.7368 204.666 30.7368H197.447L196.916 33.8721L185.249 27.2932ZM196.332 37.3261V60.3421C196.332 62.1616 194.843 63.6316 192.999 63.6316H189.665C187.822 63.6316 186.332 62.1616 186.332 60.3421V48.5C183.832 49.7644 180.998 50.4737 177.998 50.4737C174.998 50.4737 172.165 49.7644 169.664 48.5V60.3421C169.664 62.1616 168.175 63.6316 166.331 63.6316H162.997C161.154 63.6316 159.664 62.1616 159.664 60.3421V36.6785C156.664 35.558 154.309 33.0498 153.497 29.8425L153.101 28.2492C152.653 26.4914 153.736 24.7027 155.528 24.2607C157.32 23.8187 159.122 24.8877 159.57 26.6558L159.976 28.2492C160.341 29.7089 161.674 30.7368 163.206 30.7368H184.644L196.332 37.3261ZM201.333 19.2237C201.333 18.7875 201.157 18.3691 200.845 18.0607C200.532 17.7522 200.108 17.5789 199.666 17.5789C199.224 17.5789 198.8 17.7522 198.487 18.0607C198.175 18.3691 197.999 18.7875 197.999 19.2237C197.999 19.6599 198.175 20.0782 198.487 20.3867C198.8 20.6951 199.224 20.8684 199.666 20.8684C200.108 20.8684 200.532 20.6951 200.845 20.3867C201.157 20.0782 201.333 19.6599 201.333 19.2237Z" fill="black"/>
</svg>
