<?xml version="1.0" encoding="UTF-8"?>
<svg width="40" height="40" viewBox="0 0 40 40" fill="none" xmlns="http://www.w3.org/2000/svg">
  <path d="M30.5 8C32 8 33.5 9 34 10C34.5 11 35 13 35 14C35 15 34.5 16.5 34 17.5C33.5 18.5 31 21.5 30 22.5C29 23.5 28 23.5 27 24.5C26 25.5 26 27 26.5 28C27 29 29 31 29 32C29 33 28 34 27 34C26 34 25 33.5 24 33C23 32.5 22 31 21 31C20 31 18.5 32 18 32.5C17.5 33 16 34 15 34C14 34 13 33 13 32C13 31 14.5 29 15 28C15.5 27 16 26 15 24.5C14 23 13.5 23 12 22C10.5 21 8 18.5 7 17.5C6 16.5 5 14.5 5 14C5 13.5 5.5 11 6 10C6.5 9 8 8 9.5 8C11 8 13.5 8.5 14.5 9.5C15.5 10.5 16 11.5 16.5 12C17 12.5 18 13.5 19 13.5C20 13.5 21 13 21.5 12.5C22 12 22.5 10.5 23 9.5C23.5 8.5 25.5 8 27 8C28.5 8 29 8 30.5 8Z" 
        stroke="#1d4ed8" 
        strokeWidth="2" 
        fill="none"/>
  <!-- Ear -->
  <path d="M10 12C10 12 11 9 12.5 9" stroke="#1d4ed8" strokeWidth="2" fill="none" strokeLinecap="round"/>
  <!-- Tail -->
  <path d="M30 11C30 11 33 12 34 14" stroke="#1d4ed8" strokeWidth="2" fill="none" strokeLinecap="round"/>
  <!-- Eye -->
  <circle cx="15" cy="14" r="1" fill="#1d4ed8"/>
</svg>