<svg width="32" height="29" viewBox="0 0 32 29" fill="none" xmlns="http://www.w3.org/2000/svg">
<path d="M17.1992 8.68969L18.4826 1.08553C18.5882 0.460526 19.1382 0 19.7827 0C20.1994 0 20.5883 0.191886 20.8383 0.520833L21.7772 1.75439H24.6718C25.3774 1.75439 26.0552 2.03399 26.5553 2.52741L27.5553 3.50877H30.6666C31.4055 3.50877 32 4.0954 32 4.82456V6.14035C32 8.5636 30.011 10.5263 27.5553 10.5263H23.7051L23.4218 12.1985L17.1992 8.68969ZM23.1106 14.0406V26.3158C23.1106 27.2862 22.3162 28.0702 21.3328 28.0702H19.5549C18.5715 28.0702 17.777 27.2862 17.777 26.3158V20C16.4436 20.6743 14.9324 21.0526 13.3323 21.0526C11.7323 21.0526 10.2211 20.6743 8.88767 20V26.3158C8.88767 27.2862 8.09319 28.0702 7.1098 28.0702H5.33193C4.34854 28.0702 3.55406 27.2862 3.55406 26.3158V13.6952C1.95397 13.0976 0.698352 11.7599 0.264995 10.0493L0.0538733 9.19956C-0.185028 8.26206 0.39278 7.30811 1.34839 7.07237C2.30399 6.83662 3.26515 7.4068 3.50405 8.34978L3.72073 9.19956C3.91519 9.97807 4.62634 10.5263 5.44305 10.5263H16.877L23.1106 14.0406ZM25.7774 4.38597C25.7774 4.15332 25.6838 3.9302 25.5171 3.7657C25.3504 3.60119 25.1243 3.50877 24.8885 3.50877C24.6528 3.50877 24.4266 3.60119 24.2599 3.7657C24.0932 3.9302 23.9996 4.15332 23.9996 4.38597C23.9996 4.61861 24.0932 4.84173 24.2599 5.00623C24.4266 5.17074 24.6528 5.26316 24.8885 5.26316C25.1243 5.26316 25.3504 5.17074 25.5171 5.00623C25.6838 4.84173 25.7774 4.61861 25.7774 4.38597Z" fill="black"/>
</svg>
