<svg width="32" height="32" viewBox="0 0 32 32" fill="none" xmlns="http://www.w3.org/2000/svg">
<path d="M25.9641 1.44418C24.7895 0.77855 24.0281 1.02045 23.6314 1.27945C23.1945 1.01786 22.7542 0.797716 22.3194 0.644907C21.1531 0.235171 19.2612 0 17.1288 0C14.9964 0 13.104 0.235171 11.9382 0.644907C11.5029 0.797716 11.0626 1.01786 10.6257 1.27945C10.2279 1.02149 9.46648 0.782176 8.29517 1.44625C5.62979 2.95932 -0.0822067 2.36 3.29876 8.87899C3.81628 9.8751 4.21848 10.5853 4.57324 11.0069C4.54124 13.5182 5.1509 16.5547 6.3829 18.8012C5.952 19.4539 5.30593 20.7427 5.35945 22.523C2.37517 21.8471 0 18.5484 0 18.5484C0 22.6686 3.41572 24.5365 5.71476 24.5567C5.95064 25.2992 6.27451 26.0146 6.68028 26.6893C7.1509 27.4792 8.58317 28.0283 9.80248 28.2966C10.0579 29.1617 10.3807 29.7543 10.7801 30.1205C11.5564 30.8307 13.0433 31.0798 14.2532 31.0798C14.3275 31.0798 14.4004 31.0791 14.4717 31.0778C15.5763 31.0493 16.5103 30.8219 17.1294 30.4396C17.7484 30.8219 18.6819 31.0498 19.7854 31.0778C21.029 31.1047 22.6527 30.8737 23.4775 30.12C23.8714 29.7595 24.1926 29.1627 24.4486 28.2972C25.669 28.0288 27.1057 27.4808 27.5779 26.6888C29.7236 23.0871 28.7603 20.3578 28.0899 19.1535C29.3672 16.8479 29.845 13.5695 29.7258 10.9551C30.0701 10.5278 30.4618 9.83573 30.9589 8.8764C34.341 2.35689 28.629 2.95725 25.9641 1.44418ZM7.65076 26.2122C5.87697 23.2343 6.44745 21.0001 7.03338 19.8305C7.51669 20.4889 8.07062 21.0297 8.69407 21.4093C8.76469 21.5482 8.88772 21.7662 9.06428 22.0289C9.14317 24.2122 9.2971 25.9082 9.54152 27.1918C8.54676 26.9079 7.82786 26.509 7.65076 26.2122ZM9.47641 20.0957C9.2634 19.9001 9.09414 19.6666 8.97859 19.4088C8.86303 19.1509 8.80351 18.874 8.80351 18.5943C8.80351 18.3146 8.86303 18.0377 8.97859 17.7798C9.09414 17.522 9.2634 17.2884 9.47641 17.0929L13.019 13.8279C13.4284 13.4503 13.9404 13.1473 14.5159 12.9173C14.3228 13.111 14.2052 13.3576 14.2052 13.6881C14.2052 14.6029 16.5319 15.4135 17.1294 15.4135C17.7258 15.4135 20.0535 14.6029 20.0535 13.6881C20.0535 13.3571 19.9354 13.1105 19.7429 12.9168C20.3194 13.1468 20.832 13.4503 21.243 13.8274L24.7829 17.0929C24.9959 17.2884 25.1652 17.5219 25.2808 17.7796C25.3964 18.0374 25.456 18.3142 25.456 18.5939C25.4561 18.8736 25.3966 19.1505 25.2811 19.4083C25.1656 19.6661 24.9964 19.8996 24.7834 20.0952C24.3504 20.4937 23.7672 20.7156 23.1608 20.7126C22.6115 20.7119 22.0805 20.5271 21.6634 20.1915L21.6337 20.1667C21.6022 20.1417 21.5699 20.1179 21.5366 20.0952L18.3818 17.1887L17.9939 16.8313C17.7793 16.6334 17.4648 16.5195 17.1305 16.5195C16.7967 16.5195 16.4817 16.6334 16.2681 16.8308L15.7688 17.2908L12.6919 20.119C12.6691 20.1346 12.6468 20.1511 12.6251 20.1687L12.6019 20.1879C12.1848 20.5261 11.6523 20.7125 11.1012 20.7132C10.4942 20.7161 9.91036 20.4943 9.47641 20.0957ZM14.7349 20.1605C14.9732 21.3824 16.1087 21.9299 17.1294 21.9299C18.1501 21.9299 19.285 21.3824 19.5228 20.1605C19.5945 19.7958 19.5244 19.3291 19.3219 18.7686L20.7145 20.0527L21.0505 20.3625L19.7363 21.5741C19.1283 22.133 18.1788 22.4536 17.1294 22.4536C16.08 22.4536 15.1283 22.133 14.5197 21.5746L13.2066 20.3635L14.9357 18.7712C14.7327 19.3291 14.6637 19.7963 14.7349 20.1605ZM15.6646 18.4345H16.6786L17.1288 20.8981L17.579 18.4345H18.5931C18.9186 19.1359 19.0532 19.6968 18.9799 20.0729C18.7972 21.01 17.9183 21.4285 17.1294 21.4285C16.3388 21.4285 15.461 21.0095 15.2783 20.0729C15.205 19.6963 15.339 19.1359 15.6646 18.4345ZM16.7167 29.4492C16.3652 29.8087 15.493 30.0485 14.4414 30.076C13.2094 30.106 12.0232 29.8351 11.563 29.4134C10.88 28.7882 10.4342 26.7572 10.2328 23.3772C11.2706 24.3355 12.8811 25.3259 15.2966 25.6699C15.0913 25.4047 14.9567 24.9918 14.9567 24.5225C14.9567 24.4298 14.9661 24.3402 14.9766 24.2526C15.1487 24.2961 15.3214 24.3428 15.4924 24.377C15.4886 24.4251 15.4836 24.4733 15.4836 24.5225C15.4836 25.1824 15.7815 25.6994 16.1622 25.7647C16.416 25.7823 16.6742 25.7963 16.9412 25.8009C16.9248 26.1663 16.9154 26.5319 16.9131 26.8975C16.9192 27.6403 16.9451 28.3826 17.0312 29.126L16.7167 29.4492ZM22.6946 29.4129C22.2345 29.8346 21.0472 30.1034 19.8168 30.0754C18.7647 30.048 17.893 29.8082 17.5426 29.4487L17.2248 29.1239C17.3103 28.3811 17.3346 27.6388 17.339 26.896C17.3366 26.5301 17.3267 26.1643 17.3092 25.7989C20.6566 25.7559 22.7686 24.5572 24.0265 23.3959C23.8262 26.7628 23.3799 28.7867 22.6946 29.4129ZM26.6086 26.2117C26.4309 26.509 25.7087 26.91 24.7101 27.1933C24.9589 25.9035 25.1161 24.2039 25.1945 22.0408C25.2474 21.9631 25.2951 21.8895 25.3374 21.8201C25.5454 21.7036 25.7473 21.5932 25.9614 21.471C26.5015 21.1623 26.9749 20.7292 27.3903 20.2091C27.8775 21.427 28.2074 23.5259 26.6086 26.2117ZM25.3721 20.623C22.1887 22.4448 19.7412 23.5741 17.3766 23.5741C15.2094 23.5741 12.9666 22.6184 10.1583 21.0592C10.4609 21.1591 10.7789 21.2116 11.0996 21.2146C11.7186 21.2146 12.3023 21.0271 12.7895 20.694L14.1269 21.9263C14.8392 22.58 15.9332 22.9551 17.1294 22.9551C18.3244 22.9551 19.4179 22.5795 20.1291 21.9258L21.467 20.693C21.9579 21.031 22.5505 21.2136 23.1592 21.2146C23.9123 21.2184 24.6366 20.9428 25.1746 20.4479C25.4375 20.2066 25.6464 19.9184 25.789 19.6002C25.9316 19.282 26.005 18.9403 26.005 18.5951C26.005 18.2499 25.9316 17.9081 25.789 17.59C25.6464 17.2718 25.4375 16.9835 25.1746 16.7422L22.2157 14.0123C22.7912 14.4026 23.4833 14.612 24.1931 14.6106C25.9851 14.6106 27.4433 13.3208 27.4433 11.7352C27.4433 10.1496 25.9851 8.85931 24.1931 8.85931C22.4011 8.85931 20.9423 10.1491 20.9423 11.7352C20.9423 12.3636 21.1741 12.9437 21.5619 13.4172C20.4932 12.477 18.8866 11.9357 17.1272 11.9357C15.3633 11.9357 13.7523 12.4801 12.6869 13.426C13.0914 12.944 13.3122 12.3488 13.3142 11.7352C13.3142 10.1491 11.8554 8.85931 10.0634 8.85931C8.27145 8.85931 6.81379 10.1491 6.81379 11.7352C6.81379 13.3213 8.27145 14.6106 10.0634 14.6106C10.7779 14.6121 11.4743 14.4 12.0519 14.0051L9.08303 16.7417C8.56138 17.2213 8.2637 17.8756 8.25532 18.561C8.24694 19.2464 8.52855 19.907 9.03834 20.3977C6.88386 18.8188 5.70648 14.5661 5.68166 11.2582C6.10814 10.8785 6.57214 9.93312 7.21986 8.36203C7.74676 7.08361 7.75172 6.10667 7.87255 5.23333C9.13986 3.60992 10.8121 2.11498 12.3354 1.57989C13.3644 1.21885 15.1564 1.00284 17.1288 1.00284C19.1012 1.00284 20.8921 1.21885 21.9217 1.57989C23.4461 2.11498 25.1189 3.61096 26.3868 5.2354C26.507 6.10822 26.5131 7.08361 27.0383 8.35996C27.7302 10.0372 28.2113 10.9955 28.6621 11.3193C28.7719 14.838 27.7054 19.2876 25.3721 20.623ZM24.9368 13.7036C25.3683 13.7036 25.7683 13.5902 26.1092 13.4032C25.5902 13.8598 24.9044 14.1123 24.1931 14.1087C22.7051 14.1087 21.4946 13.0432 21.4946 11.7347C21.4946 10.4262 22.7046 9.36021 24.1931 9.36021C24.9423 9.36021 25.621 9.63112 26.1103 10.0662C25.7547 9.86959 25.3496 9.76569 24.9368 9.76529C23.7043 9.76529 22.7057 10.6474 22.7057 11.7347C22.7057 12.822 23.7043 13.7036 24.9368 13.7036ZM9.32138 9.7658C8.88938 9.7658 8.48993 9.87924 8.14841 10.0668C8.66711 9.6095 9.35306 9.35675 10.0646 9.36073C11.5526 9.36073 12.7636 10.4263 12.7636 11.7352C12.7636 13.0442 11.5531 14.1092 10.0646 14.1092C9.35324 14.1128 8.6675 13.8603 8.14841 13.4037C8.48993 13.5907 8.88938 13.7041 9.32138 13.7041C10.5534 13.7041 11.5514 12.823 11.5514 11.7352C11.5514 10.6474 10.5534 9.7658 9.32138 9.7658Z" fill="black"/>
</svg>